<?xml version="1.0" standalone="no"?>
<!DOCTYPE svg PUBLIC "-//W3C//DTD SVG 20010904//EN"
 "http://www.w3.org/TR/2001/REC-SVG-20010904/DTD/svg10.dtd">
<svg version="1.0" xmlns="http://www.w3.org/2000/svg"
 width="512.000000pt" height="512.000000pt" viewBox="0 0 512.000000 512.000000"
 preserveAspectRatio="xMidYMid meet">

<g transform="translate(0.000000,512.000000) scale(0.100000,-0.100000)"
fill="#000000" stroke="none">
<path d="M2290 3718 c0 -131 -53 -449 -96 -575 -22 -65 -75 -145 -132 -200
-114 -111 -245 -119 -432 -26 -134 68 -248 207 -279 344 -28 121 -3 268 64
367 l36 53 -28 -7 c-256 -57 -480 -135 -692 -240 -329 -163 -536 -345 -649
-571 -90 -177 -105 -421 -41 -672 22 -88 90 -234 148 -319 164 -241 459 -419
793 -476 l38 -7 -60 90 c-135 201 -160 335 -83 438 53 72 202 129 308 118 196
-21 338 -101 418 -237 l34 -57 46 92 c68 138 137 199 227 200 150 2 337 -207
551 -618 53 -101 58 -108 67 -85 107 276 201 444 320 571 117 126 247 165 365
112 52 -24 159 -121 202 -184 l27 -39 73 68 c83 77 156 123 241 153 83 29 205
24 286 -13 221 -102 253 -320 80 -537 l-35 -43 34 7 c71 14 258 79 349 121
189 89 371 233 473 378 87 121 135 242 163 408 67 401 -127 763 -562 1048
-240 157 -640 300 -843 300 l-60 0 39 -72 c134 -251 125 -445 -27 -596 -180
-179 -467 -212 -626 -71 -63 54 -83 91 -106 190 -32 140 -89 544 -91 646 -1
10 -10 -7 -20 -37 -49 -134 -129 -211 -229 -218 -71 -5 -119 17 -177 80 -37
40 -94 142 -94 167 0 5 -4 13 -10 16 -6 4 -10 -21 -10 -67z"/>
</g>
</svg>
